<svg width="64" height="64" viewBox="0 0 64 64" fill="none" xmlns="http://www.w3.org/2000/svg">
<path fill-rule="evenodd" clip-rule="evenodd" d="M28.4174 53.3009C42.4133 53.3009 53.8348 41.7748 53.8348 27.6505C53.8348 13.5262 42.4133 2 28.4174 2C14.4214 2 3 13.5262 3 27.6505C3 41.7748 14.4214 53.3009 28.4174 53.3009Z" stroke="#1A4DAA" stroke-width="1.5" stroke-miterlimit="2.61"/>
<mask id="mask0_2040_8908" style="mask-type:luminance" maskUnits="userSpaceOnUse" x="3" y="2" width="51" height="52">
<path d="M28.4174 53.3009C42.4133 53.3009 53.8348 41.7748 53.8348 27.6505C53.8348 13.5262 42.4133 2 28.4174 2C14.4214 2 3 13.5262 3 27.6505C3 41.7748 14.4214 53.3009 28.4174 53.3009Z" fill="white"/>
</mask>
<g mask="url(#mask0_2040_8908)">
<path d="M21.1986 36.8589L11.9731 39.992C8.95682 40.8962 7.01328 43.7236 7.25306 46.8949L8.19959 59.5036" stroke="#1A4DAA" stroke-width="1.5" stroke-miterlimit="10"/>
<path d="M48.6352 59.5036L49.5817 46.8949C49.8215 43.7236 47.8906 40.8962 44.8617 39.992L35.6362 36.8589" stroke="#1A4DAA" stroke-width="1.5" stroke-miterlimit="10"/>
<path d="M37.6555 19.8177C35.1188 19.1299 33.1626 17.9455 32.3171 16.519C30.4997 18.2766 26.8777 19.4738 22.7004 19.4738C21.7034 19.4738 20.7442 19.4101 19.8229 19.2828" stroke="#1A4DAA" stroke-width="1.5" stroke-miterlimit="2.61"/>
<path fill-rule="evenodd" clip-rule="evenodd" d="M28.695 34.1587C24.2526 34.1587 20.5549 28.9369 19.7598 23.0019C19.7093 22.6326 18.7123 22.7472 18.5987 21.4608C18.5609 21.0533 19.5957 21.0533 19.5957 20.6457C19.5957 13.8065 23.6721 10.355 28.695 10.355C33.7179 10.355 37.7943 13.8192 37.7943 20.6457C37.7943 21.066 38.8291 21.0533 38.7913 21.4608C38.6651 22.7472 37.6807 22.6326 37.6302 23.0019C36.8351 28.9369 33.1374 34.1587 28.695 34.1587Z" stroke="#1A4DAA" stroke-width="1.5" stroke-miterlimit="2.61"/>
<path fill-rule="evenodd" clip-rule="evenodd" d="M25.603 38.3105H31.2317C31.4336 38.3105 31.5977 38.4124 31.6987 38.578C31.7996 38.7563 31.787 38.9473 31.6987 39.1129L28.8843 43.7998C28.7834 43.9654 28.6193 44.0545 28.43 44.0545C28.2407 44.0545 28.0766 43.9654 27.9757 43.7998L25.1613 39.1129C25.0604 38.9473 25.0604 38.7436 25.1613 38.578C25.2623 38.3997 25.4263 38.3105 25.6283 38.3105H25.603Z" stroke="#1A4DAA" stroke-width="1.5" stroke-miterlimit="2.61"/>
<path d="M26.9534 42.1313L24.6691 59.5034H32.1782L29.8813 42.1313" stroke="#1A4DAA" stroke-width="1.5" stroke-miterlimit="2.61"/>
</g>
<path fill-rule="evenodd" clip-rule="evenodd" d="M46.9565 50.6776L50.7805 46.8186C51.0834 46.5129 51.5756 46.5129 51.8785 46.8186L61.4321 56.4598C62.1893 57.224 62.1893 58.4594 61.4321 59.2235L59.2487 61.4269C58.4915 62.191 57.2673 62.191 56.5101 61.4269L46.9565 51.7857C46.6536 51.48 46.6536 50.9833 46.9565 50.6776Z" stroke="#1A4DAA" stroke-width="1.5" stroke-miterlimit="2.61" stroke-linecap="round"/>
<path d="M48.5467 48.4363L46.0731 45.9272" stroke="#1A4DAA" stroke-width="1.5" stroke-miterlimit="2.61" stroke-linecap="round"/>
</svg>
