<svg width="64" height="64" viewBox="0 0 64 64" fill="none" xmlns="http://www.w3.org/2000/svg">
<g clip-path="url(#clip0_2040_8875)">
<path d="M19.2347 40.136V36.978H57V60.0001H19.2347V56.8508" stroke="#1A4DAA" stroke-width="1.5" stroke-miterlimit="2.61" stroke-linejoin="round"/>
<path d="M57 60.0003L42.2655 48.4937M33.9692 48.4937L19.2347 60.0003" stroke="#1A4DAA" stroke-width="1.5" stroke-miterlimit="2.61"/>
<path d="M57 36.978L38.113 51.7387L19.2347 36.978" stroke="#1A4DAA" stroke-width="1.5" stroke-miterlimit="2.61" stroke-linejoin="round"/>
<path d="M8.23383 44.3149H19.2694" stroke="#1A4DAA" stroke-width="1.5" stroke-miterlimit="2.61" stroke-linecap="round"/>
<path d="M7.47485 48.4937H19.1909" stroke="#1A4DAA" stroke-width="1.5" stroke-miterlimit="2.61" stroke-linecap="round"/>
<path d="M8.23383 52.6724H19.2694" stroke="#1A4DAA" stroke-width="1.5" stroke-miterlimit="2.61" stroke-linecap="round"/>
<path d="M19.2345 40.1357H10.7637" stroke="#1A4DAA" stroke-width="1.5" stroke-miterlimit="2.61" stroke-linecap="round"/>
<path d="M10.7637 56.8511H19.2345" stroke="#1A4DAA" stroke-width="1.5" stroke-miterlimit="2.61" stroke-linecap="round"/>
<path d="M34.88 5.28V3H62.15V19.62H34.88V17.35" stroke="#1A4DAA" stroke-width="1.5" stroke-miterlimit="2.61" stroke-linejoin="round"/>
<path d="M62.15 19.6201L51.51 11.3101M45.51 11.3101L34.87 19.6201" stroke="#1A4DAA" stroke-width="1.5" stroke-miterlimit="2.61"/>
<path d="M62.15 3L48.51 13.65L34.88 3" stroke="#1A4DAA" stroke-width="1.5" stroke-miterlimit="2.61" stroke-linejoin="round"/>
<path d="M20 9.2998H34.9" stroke="#1A4DAA" stroke-width="1.5" stroke-miterlimit="2.61" stroke-linecap="round"/>
<path d="M20 13.3198H34.9" stroke="#1A4DAA" stroke-width="1.5" stroke-miterlimit="2.61" stroke-linecap="round"/>
<path d="M34.88 5.27979H21.83" stroke="#1A4DAA" stroke-width="1.5" stroke-miterlimit="2.61" stroke-linecap="round"/>
<path d="M21.83 17.3496H34.88" stroke="#1A4DAA" stroke-width="1.5" stroke-miterlimit="2.61" stroke-linecap="round"/>
<path d="M7.05685 23.6726V22.2578H24V32.5809H7.05685V31.166" stroke="#1A4DAA" stroke-width="1.5" stroke-miterlimit="2.61" stroke-linejoin="round"/>
<path d="M23.9999 32.581L17.3886 27.4194M13.6681 27.4194L7.05682 32.581" stroke="#1A4DAA" stroke-width="1.5" stroke-miterlimit="2.61"/>
<path d="M24 22.2578L15.5284 28.8778L7.05685 22.2578" stroke="#1A4DAA" stroke-width="1.5" stroke-miterlimit="2.61" stroke-linejoin="round"/>
<path d="M0.10498 27.4194H7.03943" stroke="#1A4DAA" stroke-width="1.5" stroke-miterlimit="2.61" stroke-linecap="round"/>
<path d="M7.05685 24.9824H1.5809" stroke="#1A4DAA" stroke-width="1.5" stroke-miterlimit="2.61" stroke-linecap="round"/>
<path d="M1.5809 29.856H7.05685" stroke="#1A4DAA" stroke-width="1.5" stroke-miterlimit="2.61" stroke-linecap="round"/>
</g>
<defs>
<clipPath id="clip0_2040_8875">
<rect width="64" height="64" fill="white"/>
</clipPath>
</defs>
</svg>
