<svg width="64" height="64" viewBox="0 0 64 64" fill="none" xmlns="http://www.w3.org/2000/svg">
<path d="M52.8274 23.932C53.5791 26.3114 54 28.8596 54 31.5C54 45.0241 43.2515 56 30.0075 56C16.7635 56 6 45.0395 6 31.5C6 17.9605 16.7485 7 29.9925 7C32.5781 7 35.0736 7.41447 37.4037 8.19737" stroke="#1A4DAA" stroke-width="1.5" stroke-miterlimit="2.61" stroke-linecap="round"/>
<path d="M44.2699 23.7579C45.3722 25.9321 46 28.3971 46 31C46 39.8345 38.8344 47 30 47C21.1655 47 14 39.8345 14 31C14 22.1656 21.1655 15 30 15C32.6029 15 35.0679 15.6277 37.2421 16.7301" stroke="#1A4DAA" stroke-width="1.5" stroke-miterlimit="2.61" stroke-linecap="round"/>
<path d="M37.9848 29.9838C37.9848 30.1508 38 30.333 38 30.5C38 34.6447 34.6447 38 30.5 38C26.3553 38 23 34.6447 23 30.5C23 26.3553 26.3553 23 30.5 23C30.6822 23 30.8492 23 31.0162 23.0152" stroke="#1A4DAA" stroke-width="1.5" stroke-miterlimit="2.61" stroke-linecap="round"/>
<path d="M30 31L53 8" stroke="#1A4DAA" stroke-width="1.5" stroke-miterlimit="2.61" stroke-linecap="round"/>
<path fill-rule="evenodd" clip-rule="evenodd" d="M50.4253 2L52.5274 8.47871L59 10.5828L51.5747 18L45.1021 15.9111L43 9.43236L50.4253 2Z" stroke="#1A4DAA" stroke-width="1.5" stroke-linecap="round" stroke-linejoin="round"/>
</svg>
