<svg width="240" height="32" viewBox="0 0 240 32" fill="none" xmlns="http://www.w3.org/2000/svg">
<g clip-path="url(#clip0_794_6575)">
<path d="M57.8072 23.6536H54.1006L47.7779 13.447V23.6536H44.2539V8.75195H48.8469L54.2832 17.2879V8.75195H57.8072V23.6536Z" fill="black"/>
<path d="M71.8326 23.6536H61.0566V8.75195H71.8326V11.6313H64.8492V14.4838H71.2955V17.3631H64.8492V20.7689H71.8326V23.6536Z" fill="black"/>
<path d="M88.1035 18.2602C88.1035 20.0974 87.5431 21.5084 86.4221 22.4933C85.3048 23.471 83.6502 23.9598 81.4693 23.9598C79.2883 23.9598 77.6391 23.471 76.5217 22.4933C75.4044 21.5156 74.8457 20.1028 74.8457 18.2656V8.75195H78.7081V18.0453C78.6438 18.8697 78.8741 19.6902 79.3581 20.3606C79.6331 20.6337 79.9647 20.843 80.3295 20.9739C80.6943 21.1047 81.0834 21.154 81.4693 21.1181C81.8521 21.1541 82.2382 21.1076 82.6015 20.9815C82.9648 20.8555 83.2968 20.6529 83.575 20.3875C84.0786 19.7158 84.3158 18.8815 84.2411 18.0453V8.75195H88.1035V18.2602Z" fill="black"/>
<path d="M103.15 11.6313H98.4983V23.6536H94.6574V11.6313H90V8.75195H103.15V11.6313Z" fill="black"/>
<path d="M119.612 23.6537H114.916L110.861 18.2173H109.083V23.6805H105.258V8.75205H111.704C112.464 8.7428 113.224 8.79309 113.976 8.90247C114.606 8.99984 115.21 9.22073 115.754 9.55246C116.3 9.86708 116.76 10.3118 117.092 10.8471C117.442 11.4531 117.614 12.146 117.586 12.8454C117.628 13.7996 117.361 14.7418 116.823 15.5314C116.246 16.2768 115.495 16.8705 114.637 17.2611L119.612 23.6537ZM113.616 13.3128C113.626 12.9774 113.546 12.6456 113.385 12.3512C113.196 12.0626 112.92 11.8423 112.596 11.7227C112.304 11.6087 111.996 11.5434 111.683 11.5293C111.339 11.5025 110.936 11.4917 110.474 11.4917H109.083V15.5314H110.291C110.807 15.5393 111.322 15.5088 111.833 15.4401C112.208 15.3975 112.566 15.2567 112.87 15.0318C113.116 14.8519 113.317 14.6163 113.455 14.3442C113.589 14.0177 113.644 13.6645 113.616 13.3128Z" fill="black"/>
<path d="M135.06 23.6536H131.091L130.054 20.64H124.542L123.5 23.6536H119.627L125.133 8.75195H129.554L135.06 23.6536ZM129.151 17.9057L127.32 12.5714L125.488 17.9057H129.151Z" fill="black"/>
<path d="M147.947 23.6536H137.203V8.75195H141.044V20.7689H147.947V23.6536Z" fill="black"/>
<path d="M177.832 8.75195L173.819 23.6536H169.559L166.873 13.9466L164.268 23.6536H160.019L156.006 8.75195H160.013L162.302 19.0069L165.084 8.75195H168.915L171.531 19.0069L173.932 8.75195H177.832Z" fill="black"/>
<path d="M193.93 16.2082C193.93 18.5826 193.25 20.4681 191.889 21.8648C190.528 23.2615 188.646 23.9598 186.243 23.9598C183.847 23.9598 181.969 23.2615 180.608 21.8648C179.247 20.4681 178.566 18.5826 178.566 16.2082C178.566 13.8123 179.247 11.9178 180.608 10.5247C181.969 9.13162 183.847 8.43686 186.243 8.44044C188.635 8.44044 190.514 9.1352 191.878 10.5247C193.242 11.9143 193.926 13.8088 193.93 16.2082ZM188.837 19.9685C189.221 19.4941 189.503 18.9454 189.665 18.357C189.857 17.6572 189.949 16.9338 189.939 16.2082C189.954 15.4356 189.849 14.6653 189.627 13.9251C189.458 13.3705 189.183 12.8542 188.816 12.4049C188.503 12.0208 188.098 11.7215 187.64 11.5347C187.2 11.3523 186.729 11.2591 186.254 11.2607C185.783 11.2592 185.316 11.3486 184.878 11.5239C184.422 11.7154 184.016 12.0095 183.691 12.3834C183.317 12.8386 183.039 13.3649 182.875 13.9305C182.654 14.6727 182.549 15.4446 182.563 16.2189C182.547 16.9859 182.65 17.7508 182.869 18.4859C183.034 19.043 183.308 19.5617 183.675 20.0115C183.989 20.3901 184.389 20.6884 184.841 20.8818C185.289 21.0679 185.769 21.1638 186.254 21.1638C186.738 21.1638 187.219 21.0679 187.666 20.8818C188.123 20.6778 188.524 20.3685 188.837 19.9793V19.9685Z" fill="black"/>
<path d="M210.589 23.6536H205.91L201.843 18.2173H200.06V23.6805H196.24V8.75202H202.687C203.445 8.74294 204.203 8.79323 204.953 8.90243C205.585 8.99912 206.191 9.22004 206.737 9.55243C207.28 9.87001 207.739 10.3141 208.075 10.8471C208.431 11.4515 208.612 12.1437 208.596 12.8454C208.636 13.8002 208.367 14.7424 207.827 15.5313C207.251 16.278 206.5 16.8719 205.641 17.2611L210.589 23.6536ZM204.594 13.3127C204.602 12.9782 204.525 12.6469 204.368 12.3512C204.177 12.0616 203.899 11.8412 203.573 11.7227C203.283 11.6086 202.976 11.5433 202.665 11.5293C202.316 11.5024 201.913 11.4917 201.451 11.4917H200.06V15.5313H201.241C201.757 15.5395 202.272 15.5089 202.783 15.44C203.16 15.3967 203.519 15.256 203.825 15.0318C204.072 14.8518 204.273 14.6162 204.411 14.3442C204.551 14.0193 204.614 13.6661 204.594 13.3127Z" fill="black"/>
<path d="M226.183 23.6536H221.488L217.008 17.68L216.116 18.792V23.6536H212.27V8.75195H216.116V15.4991L221.439 8.75195H225.893L220.064 15.6441L226.183 23.6536Z" fill="black"/>
<path d="M240 18.9692C240.011 19.6733 239.845 20.3688 239.52 20.9933C239.195 21.6178 238.719 22.1517 238.136 22.5469C236.89 23.4637 235.2 23.9221 233.065 23.9221C231.982 23.9387 230.9 23.8287 229.842 23.5944C228.962 23.3917 228.099 23.1168 227.264 22.7725V19.2002H227.683C228.488 19.8376 229.396 20.3319 230.369 20.6613C231.279 20.9878 232.238 21.1603 233.205 21.1717C233.512 21.1666 233.819 21.1451 234.124 21.1072C234.441 21.0848 234.754 21.0179 235.053 20.9084C235.322 20.8069 235.568 20.6536 235.778 20.4572C235.88 20.3519 235.959 20.2261 236.009 20.0881C236.059 19.9502 236.079 19.8031 236.068 19.6568C236.067 19.4936 236.029 19.3329 235.956 19.1867C235.883 19.0406 235.778 18.9129 235.649 18.8134C235.291 18.5431 234.876 18.3592 234.435 18.2762C233.898 18.1473 233.28 18.0184 232.657 17.9055C232.063 17.7938 231.476 17.6449 230.9 17.4597C229.863 17.1781 228.93 16.6015 228.215 15.7998C227.65 15.0552 227.36 14.1388 227.393 13.2051C227.39 12.5268 227.559 11.8589 227.885 11.2641C228.211 10.6693 228.683 10.1671 229.257 9.80473C230.68 8.87867 232.357 8.42041 234.054 8.49398C235.031 8.49182 236.007 8.5872 236.965 8.77869C237.814 8.93453 238.645 9.17385 239.447 9.49316V12.9258H239.039C238.371 12.4087 237.626 12.0007 236.831 11.7171C235.972 11.3954 235.062 11.2316 234.145 11.2337C233.825 11.2336 233.506 11.2551 233.189 11.2981C232.873 11.3398 232.564 11.4229 232.27 11.5452C232.016 11.641 231.788 11.7956 231.604 11.9965C231.423 12.1837 231.323 12.4344 231.325 12.6948C231.315 12.8709 231.351 13.0464 231.429 13.2045C231.508 13.3626 231.625 13.4978 231.771 13.5973C232.299 13.8914 232.876 14.0879 233.474 14.1774L235.048 14.5051C235.592 14.6243 236.13 14.7713 236.659 14.9456C237.627 15.2121 238.502 15.74 239.189 16.4712C239.751 17.1793 240.039 18.0661 240 18.9692Z" fill="black"/>
<path d="M27.6169 14.4409L26.419 18.357L23.9318 8.69836H21.3318L16.5347 25.1149L10.2764 1.3335H7.63346L3.8409 14.4409H0.838015L0 17.417H6.02189L8.9442 7.26407L15.2186 31.0938H17.8347L22.6264 14.6827L25.1512 23.7289H27.5793L29.669 17.417H32.6504L33.526 14.4409H27.6169Z" fill="#327FD9"/>
</g>
<defs>
<clipPath id="clip0_794_6575">
<rect width="240" height="32" fill="white"/>
</clipPath>
</defs>
</svg>
